<svg width="32" height="32" fill="none" xmlns="http://www.w3.org/2000/svg"><path d="M9.5 29h19c.275 0 .5-.225.5-.5V9h-4.5c-.827 0-1.5-.673-1.5-1.5V3H9.5c-.275 0-.5.225-.5.5v25c0 .275.225.5.5.5z" fill="#fff"/><path d="M28.293 8 24 3.707V7.5c0 .275.225.5.5.5h3.793z" fill="#fff"/><path opacity=".67" fill-rule="evenodd" clip-rule="evenodd" d="m29.56 7.854-5.414-5.415A1.51 1.51 0 0 0 23.086 2H9.5C8.673 2 8 2.673 8 3.5v25c0 .827.673 1.5 1.5 1.5h19c.827 0 1.5-.673 1.5-1.5V8.914c0-.4-.156-.777-.44-1.06zM24 3.707 28.293 8H24.5a.501.501 0 0 1-.5-.5V3.707zM9.5 29h19c.275 0 .5-.225.5-.5V9h-4.5c-.827 0-1.5-.673-1.5-1.5V3H9.5c-.275 0-.5.225-.5.5v25c0 .276.224.5.5.5z" fill="#605E5C"/><path fill-rule="evenodd" clip-rule="evenodd" d="M24 21.796h-1.34v-1.308h-.031C22.046 21.497 21.189 22 20.056 22c-.806 0-1.451-.22-1.936-.659-.485-.438-.727-1.027-.727-1.768 0-1.556.92-2.465 2.76-2.727l2.508-.352c0-1.415-.575-2.123-1.723-2.123-1.008 0-1.917.34-2.728 1.02V14.02c.245-.185.664-.364 1.258-.535.593-.171 1.12-.258 1.584-.258 1.965 0 2.949 1.043 2.949 3.128v5.44zm-1.34-4.232-2.024.287c-.692.098-1.176.262-1.455.494-.277.232-.416.606-.416 1.123 0 .42.15.756.45 1.009.299.253.683.38 1.15.38.666 0 1.214-.235 1.647-.703.433-.468.65-1.053.65-1.756v-.834h-.001zM25.7 24l1.295-4H25.7l-.953 4h.953z" fill="#33C481"/><path d="M3.5 25h11a1.5 1.5 0 0 0 1.5-1.5v-11a1.5 1.5 0 0 0-1.5-1.5h-11A1.5 1.5 0 0 0 2 12.5v11A1.5 1.5 0 0 0 3.5 25z" fill="#107C41"/><path d="m6 22 2.174-4.01L6.182 14h1.602l1.087 2.549c.1.242.169.423.206.542h.015c.071-.194.146-.382.224-.564L10.478 14h1.47l-2.042 3.967L12 22h-1.565L9.18 19.2c-.06-.12-.11-.246-.15-.375h-.018a1.93 1.93 0 0 1-.145.363L7.574 22H6z" fill="#F9F7F7"/></svg>